<svg
  width="26"
  height="26"
  viewBox="0 0 26 26"
  fill="none"
  xmlns="http://www.w3.org/2000/svg"
>
  <g clipPath="url(#clip0_111_1380)">
    <path
      d="M18.4167 15.1667C18.4167 15.454 18.3025 15.7296 18.0994 15.9327C17.8962 16.1359 17.6207 16.25 17.3333 16.25H8.66667C8.37935 16.25 8.1038 16.1359 7.90064 15.9327C7.69747 15.7296 7.58333 15.454 7.58333 15.1667C7.58333 14.8794 7.69747 14.6038 7.90064 14.4007C8.1038 14.1975 8.37935 14.0834 8.66667 14.0834H17.3333C17.6207 14.0834 17.8962 14.1975 18.0994 14.4007C18.3025 14.6038 18.4167 14.8794 18.4167 15.1667ZM14.0833 18.4167H8.66667C8.37935 18.4167 8.1038 18.5308 7.90064 18.734C7.69747 18.9372 7.58333 19.2127 7.58333 19.5C7.58333 19.7873 7.69747 20.0629 7.90064 20.2661C8.1038 20.4692 8.37935 20.5834 8.66667 20.5834H14.0833C14.3707 20.5834 14.6462 20.4692 14.8494 20.2661C15.0525 20.0629 15.1667 19.7873 15.1667 19.5C15.1667 19.2127 15.0525 18.9372 14.8494 18.734C14.6462 18.5308 14.3707 18.4167 14.0833 18.4167ZM23.8333 11.3588V20.5834C23.8316 22.0194 23.2604 23.3962 22.2449 24.4116C21.2295 25.4271 19.8527 25.9983 18.4167 26H7.58333C6.14727 25.9983 4.77052 25.4271 3.75507 24.4116C2.73962 23.3962 2.16839 22.0194 2.16667 20.5834V5.41669C2.16839 3.98063 2.73962 2.60388 3.75507 1.58843C4.77052 0.57298 6.14727 0.00174515 7.58333 2.49694e-05H12.4746C13.4708 -0.0025392 14.4577 0.192412 15.3782 0.573606C16.2986 0.9548 17.1344 1.51467 17.8371 2.22086L21.6114 5.99736C22.318 6.69962 22.8782 7.5351 23.2596 8.45541C23.641 9.37572 23.836 10.3626 23.8333 11.3588ZM16.3053 3.75269C15.9643 3.42245 15.5815 3.13836 15.1667 2.90769V7.58336C15.1667 7.87068 15.2808 8.14623 15.484 8.34939C15.6871 8.55256 15.9627 8.66669 16.25 8.66669H20.9257C20.6949 8.25198 20.4104 7.86952 20.0796 7.52919L16.3053 3.75269ZM21.6667 11.3588C21.6667 11.18 21.632 11.0089 21.6158 10.8334H16.25C15.388 10.8334 14.5614 10.4909 13.9519 9.88146C13.3424 9.27196 13 8.44531 13 7.58336V2.21761C12.8245 2.20136 12.6523 2.16669 12.4746 2.16669H7.58333C6.72138 2.16669 5.89473 2.5091 5.28524 3.11859C4.67574 3.72809 4.33333 4.55474 4.33333 5.41669V20.5834C4.33333 21.4453 4.67574 22.272 5.28524 22.8815C5.89473 23.4909 6.72138 23.8334 7.58333 23.8334H18.4167C19.2786 23.8334 20.1053 23.4909 20.7148 22.8815C21.3243 22.272 21.6667 21.4453 21.6667 20.5834V11.3588Z"
      fill="#667ACD"
    />
  </g>
  <defs>
    <clipPath id="clip0_111_1380">
      <rect width="26" height="26" fill="white" />
    </clipPath>
  </defs>
</svg>
 