<svg width="36" height="36" viewBox="0 0 36 36" fill="none" xmlns="http://www.w3.org/2000/svg">
    <g clip-path="url(#clip0_263_14)">
        <path
            d="M24 24C24 24.3978 23.842 24.7793 23.5607 25.0606C23.2794 25.3419 22.8978 25.5 22.5 25.5H19.5V28.5C19.5 28.8978 19.342 29.2793 19.0607 29.5606C18.7794 29.8419 18.3978 30 18 30C17.6022 30 17.2206 29.8419 16.9393 29.5606C16.658 29.2793 16.5 28.8978 16.5 28.5V25.5H13.5C13.1022 25.5 12.7206 25.3419 12.4393 25.0606C12.158 24.7793 12 24.3978 12 24C12 23.6021 12.158 23.2206 12.4393 22.9393C12.7206 22.658 13.1022 22.5 13.5 22.5H16.5V19.5C16.5 19.1021 16.658 18.7206 16.9393 18.4393C17.2206 18.158 17.6022 18 18 18C18.3978 18 18.7794 18.158 19.0607 18.4393C19.342 18.7206 19.5 19.1021 19.5 19.5V22.5H22.5C22.8978 22.5 23.2794 22.658 23.5607 22.9393C23.842 23.2206 24 23.6021 24 24ZM33 15.7275V28.5C32.9976 30.4884 32.2067 32.3946 30.8007 33.8006C29.3947 35.2067 27.4884 35.9976 25.5 36H10.5C8.51161 35.9976 6.60534 35.2067 5.19933 33.8006C3.79332 32.3946 3.00238 30.4884 3 28.5V7.49997C3.00238 5.51158 3.79332 3.60531 5.19933 2.1993C6.60534 0.793296 8.51161 0.00235532 10.5 -2.64621e-05H17.2725C18.6519 -0.00357685 20.0184 0.266355 21.2928 0.794162C22.5673 1.32197 23.7245 2.09718 24.6975 3.07497L29.9235 8.30397C30.9019 9.27633 31.6775 10.4332 32.2056 11.7074C32.7337 12.9817 33.0037 14.3481 33 15.7275ZM22.5765 5.19597C22.1044 4.73872 21.5744 4.34536 21 4.02597V10.5C21 10.8978 21.158 11.2793 21.4393 11.5606C21.7206 11.8419 22.1022 12 22.5 12H28.974C28.6544 11.4258 28.2605 10.8962 27.8025 10.425L22.5765 5.19597ZM30 15.7275C30 15.48 29.952 15.243 29.9295 15H22.5C21.3065 15 20.1619 14.5259 19.318 13.682C18.4741 12.838 18 11.6934 18 10.5V3.07047C17.757 3.04797 17.5185 2.99997 17.2725 2.99997H10.5C9.30653 2.99997 8.16193 3.47408 7.31802 4.31799C6.47411 5.16191 6 6.3065 6 7.49997V28.5C6 29.6934 6.47411 30.838 7.31802 31.682C8.16193 32.5259 9.30653 33 10.5 33H25.5C26.6935 33 27.8381 32.5259 28.682 31.682C29.5259 30.838 30 29.6934 30 28.5V15.7275Z"
            fill="#E6E9ED" />
    </g>
    <defs>
        <clipPath id="clip0_263_14">
            <rect width="36" height="36" fill="white" />
        </clipPath>
    </defs>
</svg>