<svg
  width="26"
  height="26"
  viewBox="0 0 26 26"
  fill="none"
  xmlns="http://www.w3.org/2000/svg"
>
  <g clipPath="url(#clip0_111_1382)">
    <path
      d="M13 26C11.2385 26 9.57667 25.2265 8.44133 23.8778C6.773 24.0684 5.05375 23.439 3.80792 22.1932C2.56317 20.9473 1.93483 19.2248 2.08542 17.4677C0.7735 16.4233 0 14.7615 0 13C0 11.2385 0.7735 9.57667 2.12333 8.44133C1.93375 6.77625 2.56208 5.05375 3.80792 3.80792C5.05375 2.56208 6.773 1.9305 8.53233 2.08542C9.57667 0.774583 11.2385 0 13 0C14.7615 0 16.4233 0.7735 17.5587 2.12225C19.2292 1.93483 20.9463 2.561 22.1921 3.80683C23.4368 5.05267 24.0652 6.77517 23.9146 8.53233C25.2265 9.57667 26 11.2385 26 13C26 14.7615 25.2265 16.4233 23.8767 17.5587C24.0663 19.2238 23.4379 20.9463 22.1921 22.1921C20.9452 23.4379 19.2227 24.0619 17.4677 23.9146C16.4233 25.2254 14.7615 26 13 26ZM8.52908 21.749C9.13683 21.749 9.70017 22.0101 10.0978 22.4813C10.8214 23.3404 11.8788 23.8333 13 23.8333C14.1213 23.8333 15.1786 23.3404 15.9023 22.4813C16.3388 21.9624 16.9748 21.7003 17.6529 21.7555C18.7731 21.8498 19.8673 21.4522 20.6602 20.6592C21.4522 19.8673 21.8519 18.7709 21.7566 17.6518C21.6981 16.9758 21.9624 16.3378 22.4824 15.9001C23.3404 15.1775 23.8333 14.1191 23.8333 12.9989C23.8333 11.8787 23.3404 10.8203 22.4824 10.0978C21.9635 9.66117 21.6981 9.022 21.7566 8.346C21.8519 7.22692 21.4532 6.13058 20.6602 5.33867C19.8673 4.54675 18.7666 4.1535 17.654 4.24233C16.9758 4.303 16.3388 4.03542 15.9023 3.51758C15.1786 2.6585 14.1213 2.16558 13 2.16558C11.8788 2.16558 10.8214 2.6585 10.0978 3.51758C9.66008 4.0365 9.022 4.2965 8.34708 4.24342C7.2215 4.14592 6.13275 4.54675 5.33975 5.33975C4.54783 6.13167 4.14808 7.228 4.24342 8.34708C4.30192 9.02308 4.03758 9.66117 3.51758 10.0988C2.65958 10.8214 2.16667 11.8798 2.16667 13C2.16667 14.1202 2.65958 15.1786 3.51758 15.9012C4.0365 16.3378 4.30192 16.9769 4.24342 17.6529C4.14808 18.772 4.54675 19.8683 5.33975 20.6602C6.13275 21.4522 7.23883 21.8465 8.346 21.7566C8.40775 21.7512 8.46842 21.749 8.52908 21.749ZM13.8678 16.3963L19.0017 11.4476C19.4318 11.0327 19.4448 10.3458 19.0288 9.91575C18.6138 9.48567 17.9281 9.47267 17.4969 9.88758L12.3489 14.8503C11.9253 15.2739 11.2417 15.2739 10.7889 14.8232L8.32108 12.5298C7.88558 12.1236 7.19875 12.1474 6.79033 12.5862C6.383 13.0238 6.40792 13.7096 6.84667 14.1169L9.28633 16.3833C9.92117 17.0181 10.7564 17.3355 11.5895 17.3355C12.4183 17.3355 13.2427 17.0224 13.8688 16.3973L13.8678 16.3963Z"
      fill="#667ACD"
    />
  </g>
  <defs>
    <clipPath id="clip0_111_1382">
      <rect width="26" height="26" fill="white" />
    </clipPath>
  </defs>
</svg>