<svg width="26" height="26" viewBox="0 0 26 26" fill="none" xmlns="http://www.w3.org/2000/svg">
<g clip-path="url(#clip0_141_84)">
<path d="M25.1973 17.55L22.3806 7.39811C21.7792 5.22648 20.4686 3.31843 18.6575 1.97763C16.8464 0.636842 14.6389 -0.059642 12.3863 -0.000968996C10.1337 0.057704 7.9654 0.868162 6.22658 2.30142C4.48775 3.73467 3.2783 5.70836 2.7907 7.90836L0.612114 17.7125C0.506698 18.1875 0.509269 18.6801 0.619638 19.1539C0.730007 19.6278 0.945357 20.0708 1.2498 20.4503C1.55424 20.8299 1.94001 21.1362 2.37864 21.3467C2.81728 21.5572 3.29758 21.6666 3.78411 21.6667H7.6917C7.94034 22.8912 8.60465 23.992 9.57208 24.7828C10.5395 25.5735 11.7506 26.0055 13 26.0055C14.2495 26.0055 15.4605 25.5735 16.428 24.7828C17.3954 23.992 18.0597 22.8912 18.3084 21.6667H22.0675C22.5681 21.6665 23.0619 21.5506 23.5104 21.3281C23.9589 21.1056 24.3499 20.7825 24.6529 20.3841C24.956 19.9856 25.1629 19.5225 25.2575 19.0309C25.3521 18.5393 25.3308 18.0325 25.1973 17.55ZM13 23.8334C12.3302 23.8306 11.6777 23.6209 11.1316 23.2331C10.5855 22.8453 10.1726 22.2982 9.94936 21.6667H16.0507C15.8274 22.2982 15.4145 22.8453 14.8685 23.2331C14.3224 23.6209 13.6698 23.8306 13 23.8334ZM22.9288 19.0721C22.8277 19.2061 22.6967 19.3146 22.5462 19.3889C22.3957 19.4632 22.2299 19.5012 22.0621 19.5H3.78411C3.6219 19.5 3.46176 19.4635 3.31551 19.3933C3.16927 19.3231 3.04066 19.221 2.93917 19.0945C2.83768 18.9679 2.76591 18.8202 2.72915 18.6622C2.69239 18.5042 2.69158 18.34 2.72678 18.1816L4.90536 8.37744C5.28925 6.65083 6.23928 5.10209 7.60444 3.97743C8.9696 2.85276 10.6715 2.21671 12.4397 2.17039C14.2079 2.12407 15.9408 2.67013 17.3629 3.72178C18.7851 4.77343 19.8149 6.2703 20.2887 7.97444L23.1054 18.1264C23.1514 18.2869 23.1593 18.4559 23.1287 18.6201C23.098 18.7842 23.0296 18.939 22.9288 19.0721Z" fill="black"/>
</g>
<defs>
<clipPath id="clip0_141_84">
<rect width="26" height="26" fill="white"/>
</clipPath>
</defs>
</svg>
