<svg width="20" height="20" viewBox="0 0 20 20" fill="white" xmlns="http://www.w3.org/2000/svg">
<path  d="M14.6583 6.66666L5.34165 6.66666C5.17684 6.66735 5.01594 6.7169 4.87928 6.80903C4.74263 6.90117 4.63637 7.03176 4.57393 7.18428C4.51149 7.33681 4.49568 7.50443 4.5285 7.66594C4.56132 7.82745 4.6413 7.9756 4.75832 8.09166L9.40832 12.7417C9.48579 12.8198 9.57796 12.8818 9.6795 12.9241C9.78105 12.9664 9.88998 12.9882 9.99999 12.9882C10.11 12.9882 10.2189 12.9664 10.3205 12.9241C10.422 12.8818 10.5142 12.8198 10.5917 12.7417L15.2417 8.09166C15.3587 7.9756 15.4386 7.82745 15.4715 7.66594C15.5043 7.50443 15.4885 7.33681 15.426 7.18428C15.3636 7.03176 15.2573 6.90117 15.1207 6.80903C14.984 6.7169 14.8231 6.66735 14.6583 6.66666Z" fill="#FFFFFF"/>
</svg>
