<svg width="24" height="24" viewBox="0 0 24 24" fill="none" xmlns="http://www.w3.org/2000/svg">
<path d="M17.5862 15L6.41415 15C6.2164 15 6.0231 14.9413 5.85869 14.8314C5.69428 14.7215 5.56614 14.5654 5.49047 14.3827C5.4148 14.2 5.395 13.9989 5.43357 13.805C5.47213 13.611 5.56734 13.4329 5.70715 13.293L11.2931 7.707C11.4807 7.51953 11.735 7.41421 12.0001 7.41421C12.2653 7.41421 12.5196 7.51953 12.7071 7.707L18.2932 13.293C18.433 13.4329 18.5282 13.611 18.5667 13.805C18.6053 13.9989 18.5855 14.2 18.5098 14.3827C18.4342 14.5654 18.306 14.7215 18.1416 14.8314C17.9772 14.9413 17.7839 15 17.5862 15Z" fill="#101010"/>
</svg>
