<svg width="11" height="11" viewBox="0 0 11 11" fill="none" xmlns="http://www.w3.org/2000/svg">
<g clip-path="url(#clip0_1636_116)">
<path d="M6.47207 5.49998L10.7986 1.17396C11.0671 0.905395 11.0671 0.469968 10.7986 0.201424C10.53 -0.0671413 10.0946 -0.0671413 9.82603 0.201424L5.49998 4.5279L1.17396 0.201424C0.905395 -0.0671413 0.469968 -0.0671413 0.201424 0.201424C-0.0671198 0.469989 -0.0671413 0.905416 0.201424 1.17396L4.5279 5.49998L0.201424 9.82603C-0.0671413 10.0946 -0.0671413 10.53 0.201424 10.7986C0.469989 11.0671 0.905416 11.0671 1.17396 10.7986L5.49998 6.47207L9.82601 10.7986C10.0946 11.0671 10.53 11.0671 10.7985 10.7986C11.0671 10.53 11.0671 10.0946 10.7985 9.82603L6.47207 5.49998Z" fill="#646A73"/>
</g>
<defs>
<clipPath id="clip0_1636_116">
<rect width="11" height="11" fill="white"/>
</clipPath>
</defs>
</svg>
