<svg
  width="26"
  height="26"
  viewBox="0 0 26 26"
  fill="none"
  xmlns="http://www.w3.org/2000/svg"
>
  <g clipPath="url(#clip0_111_1378)">
    <path
      d="M18.9583 11.9167C15.0757 11.9167 11.9167 15.0757 11.9167 18.9583C11.9167 22.841 15.0757 26 18.9583 26C22.841 26 26 22.841 26 18.9583C26 15.0757 22.841 11.9167 18.9583 11.9167ZM18.9583 14.0833C19.9106 14.0833 20.8011 14.3585 21.5518 14.833L14.8319 21.5529C14.3574 20.8011 14.0822 19.9117 14.0822 18.9594C14.0822 16.2717 16.2695 14.0844 18.9573 14.0844L18.9583 14.0833ZM18.9583 23.8333C18.0061 23.8333 17.1156 23.5582 16.3648 23.0837L23.0848 16.3638C23.5593 17.1156 23.8344 18.005 23.8344 18.9573C23.8344 21.645 21.6472 23.8323 18.9594 23.8323L18.9583 23.8333ZM2.16667 14.0833V18.9583C2.16667 21.6461 4.35392 23.8333 7.04167 23.8333C7.82383 23.8333 8.56808 23.6546 9.256 23.3025C9.79008 23.0328 10.4423 23.2408 10.7142 23.7748C10.9861 24.3068 10.7759 24.96 10.2429 25.233C9.26033 25.7357 8.15317 26.0011 7.04058 26.0011C3.159 26 0 22.841 0 18.9583V7.04167C0 3.159 3.159 0 7.04167 0C10.9243 0 14.0833 3.159 14.0833 7.04167V9.75C14.0833 10.3491 13.598 10.8333 13 10.8333C12.402 10.8333 11.9167 10.3491 11.9167 9.75V7.04167C11.9167 4.35392 9.72942 2.16667 7.04167 2.16667C4.35392 2.16667 2.16667 4.35392 2.16667 7.04167V11.9167H9.75C10.348 11.9167 10.8333 12.4009 10.8333 13C10.8333 13.5991 10.348 14.0833 9.75 14.0833H2.16667Z"
      fill="#667ACD"
    />
  </g>
  <defs>
    <clipPath id="clip0_111_1378">
      <rect width="26" height="26" fill="white" />
    </clipPath>
  </defs>
</svg>