<svg width="20" height="20" viewBox="0 0 20 20" fill="none" xmlns="http://www.w3.org/2000/svg">
    <g clip-path="url(#clip0_26_357)">
        <path
            d="M19.3925 7.84907C18.1 5.74407 15.16 2.2124 9.99998 2.2124C4.83998 2.2124 1.89998 5.74407 0.607482 7.84907C0.207922 8.49532 -0.00372314 9.2401 -0.00372314 9.9999C-0.00372314 10.7597 0.207922 11.5045 0.607482 12.1507C1.89998 14.2557 4.83998 17.7874 9.99998 17.7874C15.16 17.7874 18.1 14.2557 19.3925 12.1507C19.792 11.5045 20.0037 10.7597 20.0037 9.9999C20.0037 9.2401 19.792 8.49532 19.3925 7.84907ZM17.9716 11.2782C16.8616 13.0832 14.3491 16.1207 9.99998 16.1207C5.65082 16.1207 3.13831 13.0832 2.02832 11.2782C1.79093 10.8941 1.66519 10.4515 1.66519 9.9999C1.66519 9.54834 1.79093 9.1057 2.02832 8.72157C3.13831 6.91657 5.65082 3.87907 9.99998 3.87907C14.3491 3.87907 16.8616 6.91324 17.9716 8.72157C18.209 9.1057 18.3348 9.54834 18.3348 9.9999C18.3348 10.4515 18.209 10.8941 17.9716 11.2782Z"
            fill="black" />
        <path
            d="M9.99998 5.83325C9.17589 5.83325 8.37031 6.07762 7.68511 6.53546C6.9999 6.9933 6.46585 7.64405 6.15048 8.4054C5.83512 9.16676 5.7526 10.0045 5.91338 10.8128C6.07415 11.621 6.47098 12.3635 7.0537 12.9462C7.63642 13.5289 8.37885 13.9258 9.18711 14.0865C9.99536 14.2473 10.8331 14.1648 11.5945 13.8494C12.3559 13.5341 13.0066 13 13.4644 12.3148C13.9223 11.6296 14.1666 10.824 14.1666 9.99992C14.1653 8.89526 13.7259 7.83622 12.9448 7.0551C12.1637 6.27399 11.1046 5.83458 9.99998 5.83325ZM9.99998 12.4999C9.50553 12.4999 9.02218 12.3533 8.61106 12.0786C8.19993 11.8039 7.8795 11.4134 7.69028 10.9566C7.50106 10.4998 7.45155 9.99715 7.54802 9.51219C7.64448 9.02724 7.88258 8.58178 8.23221 8.23215C8.58185 7.88252 9.0273 7.64442 9.51226 7.54796C9.99721 7.45149 10.4999 7.501 10.9567 7.69022C11.4135 7.87944 11.804 8.19987 12.0787 8.61099C12.3534 9.02212 12.5 9.50547 12.5 9.99992C12.5 10.663 12.2366 11.2988 11.7677 11.7677C11.2989 12.2365 10.663 12.4999 9.99998 12.4999Z"
            fill="black" />
    </g>
    <defs>
        <clipPath id="clip0_26_357">
            <rect width="20" height="20" fill="white" />
        </clipPath>
    </defs>
</svg>