<svg
  width="26"
  height="26"
  viewBox="0 0 26 26"
  fill="none"
  xmlns="http://www.w3.org/2000/svg"
>
  <g clipPath="url(#clip0_111_1384)">
    <path
      d="M17.3333 6.5C17.6207 6.5 17.8962 6.61414 18.0994 6.8173C18.3025 7.02047 18.4167 7.29602 18.4167 7.58333C18.4167 7.87065 18.3025 8.1462 18.0994 8.34937C17.8962 8.55253 17.6207 8.66667 17.3333 8.66667H8.66667C8.37935 8.66667 8.1038 8.55253 7.90064 8.34937C7.69747 8.1462 7.58333 7.87065 7.58333 7.58333C7.58333 7.29602 7.69747 7.02047 7.90064 6.8173C8.1038 6.61414 8.37935 6.5 8.66667 6.5H17.3333ZM25.6826 25.6826C25.4794 25.8857 25.2039 25.9998 24.9167 25.9998C24.6294 25.9998 24.3539 25.8857 24.1508 25.6826L21.5432 23.075C20.7709 23.5679 19.8744 23.8309 18.9583 23.8333C17.9942 23.8333 17.0516 23.5474 16.2499 23.0117C15.4482 22.4761 14.8234 21.7147 14.4544 20.8239C14.0854 19.9331 13.9889 18.9529 14.177 18.0073C14.3651 17.0616 14.8294 16.193 15.5112 15.5112C16.193 14.8294 17.0616 14.3651 18.0073 14.177C18.9529 13.9889 19.9331 14.0854 20.8239 14.4544C21.7147 14.8234 22.4761 15.4482 23.0117 16.2499C23.5474 17.0516 23.8333 17.9942 23.8333 18.9583C23.8309 19.8744 23.5679 20.7709 23.075 21.5432L25.6826 24.1507C25.8857 24.3539 25.9998 24.6294 25.9998 24.9167C25.9998 25.2039 25.8857 25.4794 25.6826 25.6826ZM18.9583 21.6667C19.494 21.6667 20.0176 21.5078 20.463 21.2102C20.9084 20.9126 21.2555 20.4897 21.4605 19.9948C21.6655 19.4999 21.7191 18.9553 21.6146 18.43C21.5101 17.9046 21.2522 17.422 20.8734 17.0433C20.4946 16.6645 20.0121 16.4065 19.4867 16.302C18.9613 16.1975 18.4168 16.2512 17.9219 16.4562C17.427 16.6611 17.004 17.0083 16.7064 17.4537C16.4088 17.899 16.25 18.4227 16.25 18.9583C16.25 19.6766 16.5353 20.3655 17.0433 20.8734C17.5512 21.3813 18.24 21.6667 18.9583 21.6667ZM14.0833 23.8333H7.58333C6.72138 23.8333 5.89473 23.4909 5.28524 22.8814C4.67574 22.2719 4.33333 21.4453 4.33333 20.5833V5.41667C4.33333 4.55471 4.67574 3.72806 5.28524 3.11857C5.89473 2.50908 6.72138 2.16667 7.58333 2.16667H20.5833C20.8707 2.16667 21.1462 2.2808 21.3494 2.48397C21.5525 2.68713 21.6667 2.96268 21.6667 3.25V11.9167C21.6667 12.204 21.7808 12.4795 21.984 12.6827C22.1871 12.8859 22.4627 13 22.75 13C23.0373 13 23.3129 12.8859 23.516 12.6827C23.7192 12.4795 23.8333 12.204 23.8333 11.9167V3.25C23.8333 2.38805 23.4909 1.5614 22.8814 0.951903C22.2719 0.34241 21.4453 0 20.5833 0L7.58333 0C6.14727 0.00172018 4.77052 0.572955 3.75507 1.5884C2.73962 2.60385 2.16839 3.98061 2.16667 5.41667V20.5833C2.16839 22.0194 2.73962 23.3961 3.75507 24.4116C4.77052 25.427 6.14727 25.9983 7.58333 26H14.0833C14.3707 26 14.6462 25.8859 14.8494 25.6827C15.0525 25.4795 15.1667 25.204 15.1667 24.9167C15.1667 24.6293 15.0525 24.3538 14.8494 24.1506C14.6462 23.9475 14.3707 23.8333 14.0833 23.8333Z"
      fill="#667ACD"
    />
  </g>
  <defs>
    <clipPath id="clip0_111_1384">
      <rect width="26" height="26" fill="white" />
    </clipPath>
  </defs>
</svg>
