<svg width="150" height="27" viewBox="0 0 150 27" fill="none" xmlns="http://www.w3.org/2000/svg">
<g clip-path="url(#clip0_1204_190)">
<path d="M23.0188 13.3032C22.8597 14.9029 22.2394 16.426 21.2296 17.6965C20.1912 18.9924 18.8321 20.0101 17.2799 20.6541C15.5199 21.3836 13.6221 21.7438 11.7098 21.7113C9.58382 21.7516 7.47915 21.2916 5.57431 20.3703C3.87634 19.5364 2.45347 18.2534 1.46848 16.6681C0.505444 14.9856 -0.000114441 13.0909 -0.000114441 11.1642C-0.000114441 9.23744 0.505444 7.34275 1.46848 5.66023C2.45347 4.07492 3.87634 2.79193 5.57431 1.95803C7.48353 1.05456 9.58846 0.614251 11.7098 0.674609C13.6232 0.640267 15.5225 0.999074 17.2842 1.72768C18.8333 2.37293 20.1914 3.38707 21.2339 4.67708C22.2479 5.94989 22.8685 7.47819 23.023 9.0827H19.335C19.1583 8.05668 18.7038 7.09525 18.0184 6.29782C17.3081 5.49949 16.4086 4.8824 15.3979 4.5002C14.2122 4.0573 12.9498 3.8422 11.6803 3.86673C10.2213 3.83209 8.77481 4.13666 7.46054 4.75524C6.30301 5.31797 5.34263 6.20264 4.70083 7.29741C4.06052 8.50032 3.72627 9.83568 3.72627 11.1909C3.72627 12.5461 4.06052 13.8815 4.70083 15.0844C5.3402 16.181 6.30124 17.0663 7.46054 17.6265C8.77376 18.2485 10.2208 18.5546 11.6803 18.5192C12.9487 18.5435 14.2102 18.3327 15.3979 17.898C16.4127 17.5233 17.314 16.905 18.0184 16.1004C18.7024 15.2974 19.1566 14.3324 19.335 13.3032H23.0188Z" fill="#1C3043"/>
<path d="M35.3405 21.7113C33.6133 21.749 31.9001 21.4015 30.3317 20.6952C28.9659 20.0753 27.8042 19.0967 26.977 17.8692C26.1877 16.6042 25.7703 15.152 25.7703 13.6714C25.7703 12.1907 26.1877 10.7386 26.977 9.47351C27.8088 8.25397 28.9696 7.28178 30.3317 6.66395C31.9113 5.9937 33.6156 5.64781 35.3384 5.64781C37.0612 5.64781 38.7655 5.9937 40.3452 6.66395C41.7155 7.27789 42.8841 8.2505 43.721 9.47351C44.5075 10.7395 44.9233 12.1913 44.9233 13.6714C44.9233 15.1515 44.5075 16.6032 43.721 17.8692C42.8887 19.1002 41.7192 20.0792 40.3452 20.6952C38.7783 21.4016 37.0664 21.7491 35.3405 21.7113ZM35.3405 18.9511C36.4273 18.98 37.5058 18.7588 38.4885 18.3053C39.334 17.9003 40.0417 17.2662 40.5266 16.4789C41.0002 15.618 41.2479 14.6564 41.2479 13.6796C41.2479 12.7028 41.0002 11.7412 40.5266 10.8803C40.0414 10.0942 39.3337 9.46147 38.4885 9.05803C37.4995 8.6295 36.4292 8.40806 35.3469 8.40806C34.2646 8.40806 33.1943 8.6295 32.2053 9.05803C31.354 9.45752 30.6411 10.0909 30.1544 10.8803C29.6809 11.7412 29.4331 12.7028 29.4331 13.6796C29.4331 14.6564 29.6809 15.618 30.1544 16.4789C30.6411 17.2693 31.3538 17.9041 32.2053 18.3053C33.1843 18.7561 34.2581 18.9773 35.3405 18.9511Z" fill="#1C3043"/>
<path d="M56.8867 19.8191H55.1734L64.1278 1.03661H68.0353L57.9965 21.3164H53.9075L43.8771 1.03661H47.8184L56.8867 19.8191Z" fill="#1C3043"/>
<path d="M72.6433 3.99838C72.0303 4.02253 71.4297 3.82636 70.9553 3.44715C70.7484 3.26547 70.5829 3.04342 70.4696 2.79539C70.3564 2.54737 70.2978 2.2789 70.2978 2.00741C70.2978 1.73591 70.3564 1.46745 70.4696 1.21942C70.5829 0.971395 70.7484 0.749345 70.9553 0.567666C71.4454 0.209527 72.0413 0.0159378 72.6538 0.0159378C73.2663 0.0159378 73.8622 0.209527 74.3523 0.567666C74.5547 0.752006 74.716 0.974941 74.8263 1.22261C74.9367 1.47028 74.9936 1.7374 74.9936 2.00741C74.9936 2.27742 74.9367 2.54456 74.8263 2.79223C74.716 3.0399 74.5547 3.26281 74.3523 3.44715C73.8727 3.83154 73.2634 4.02806 72.6433 3.99838ZM70.8372 5.91939L72.6433 6.24436L74.4451 5.91939V21.3329H70.8372V5.91939Z" fill="#1C3043"/>
<path d="M85.6781 20.144C84.3261 20.165 82.9907 19.8523 81.7959 19.2349C80.6682 18.6523 79.7267 17.7785 79.0742 16.7092C78.4208 15.5391 78.0786 14.2282 78.0786 12.896C78.0786 11.5638 78.4208 10.2528 79.0742 9.08272C79.7267 8.01342 80.6682 7.13964 81.7959 6.55699C82.9907 5.93968 84.3261 5.62697 85.6781 5.64791C86.693 5.63887 87.7015 5.80458 88.6573 6.13743C89.5401 6.44527 90.3718 6.87768 91.1258 7.42085C91.8239 7.92266 92.4497 8.5134 92.9867 9.17732C93.4649 9.77286 93.8607 10.427 94.1641 11.123C94.4238 11.6911 94.5672 12.3031 94.586 12.9248C94.5556 13.7324 94.3377 14.5228 93.9489 15.2366C93.4853 16.1203 92.8702 16.9202 92.1301 17.6019C91.3068 18.363 90.3546 18.9795 89.3156 19.4242C88.1701 19.9158 86.9295 20.1613 85.6781 20.144ZM93.2231 17.5731V14.8705L93.3623 14.3851V11.4357L93.2231 10.8968V6.02635H96.8267V17.2481C96.8916 18.9771 96.4527 20.6886 95.5608 22.1843C94.7241 23.4942 93.5084 24.5334 92.0668 25.1708C90.4599 25.8626 88.7173 26.2038 86.9609 26.1704C84.3469 26.2154 81.7859 25.449 79.6481 23.982V21.0614C80.6848 21.8785 81.8701 22.4981 83.142 22.8878C84.312 23.2334 85.5274 23.4108 86.7499 23.4143C88.8542 23.4143 90.4619 22.9097 91.5731 21.9005C92.6843 20.8913 93.2343 19.4489 93.2231 17.5731ZM86.7879 17.5484C88.0838 17.5536 89.3492 17.1654 90.4085 16.4377C91.6707 15.5057 92.684 14.2908 93.3623 12.896C92.493 11.2506 91.5084 10.0563 90.4085 9.31307C89.3446 8.59636 88.0811 8.21451 86.7879 8.21888C85.8361 8.19228 84.8924 8.39578 84.0409 8.81123C83.3103 9.18287 82.7074 9.75487 82.3065 10.4567C81.8983 11.2056 81.6934 12.0439 81.7115 12.8919C81.6959 13.7304 81.9007 14.5588 82.3065 15.2983C82.7048 16.002 83.3084 16.5747 84.0409 16.9437C84.8912 17.3634 85.835 17.5712 86.7879 17.5484Z" fill="#1C3043"/>
<path d="M103.068 3.99838C102.455 4.02214 101.854 3.82602 101.38 3.44715C101.173 3.26547 101.007 3.04342 100.894 2.79539C100.781 2.54737 100.722 2.2789 100.722 2.00741C100.722 1.73591 100.781 1.46745 100.894 1.21942C101.007 0.971395 101.173 0.749345 101.38 0.567666C101.868 0.214368 102.46 0.0236206 103.068 0.0236206C103.676 0.0236206 104.268 0.214368 104.756 0.567666C104.959 0.751361 105.122 0.974076 105.233 1.22183C105.344 1.46959 105.401 1.73704 105.401 2.00741C105.401 2.27778 105.344 2.54523 105.233 2.79298C105.122 3.04074 104.959 3.26345 104.756 3.44715C104.282 3.82739 103.681 4.02369 103.068 3.99838ZM101.266 5.91939L103.068 6.24436L104.87 5.91939V21.3329H101.266V5.91939Z" fill="#1C3043"/>
<path d="M109.393 0.510071H112.984V21.3329H109.381L109.393 0.510071Z" fill="#1C3043"/>
<path d="M133.134 1.03661L143.122 21.3164H139.21L130.138 2.39408H131.551L122.479 21.3164H118.567L128.559 1.03661H133.134ZM123.483 16.6681V13.7228H138.016V16.6681H123.483Z" fill="#1F8EFE"/>
<path d="M146.32 1.03661H149.983V21.3164H146.32V1.03661Z" fill="#1F8EFE"/>
</g>
<defs>
<clipPath id="clip0_1204_190">
<rect width="150" height="26.1745" fill="white"/>
</clipPath>
</defs>
</svg>
