<svg
  width="20"
  height="20"
  viewBox="0 0 20 20"
  fill="none"
  xmlns="http://www.w3.org/2000/svg"
>
  <g clipPath="url(#clip0_111_1374)">
    <path
      d="M19.1667 9.16663H0.833333C0.373096 9.16663 0 9.53972 0 9.99996C0 10.4602 0.373096 10.8333 0.833333 10.8333H19.1667C19.6269 10.8333 20 10.4602 20 9.99996C20 9.53972 19.6269 9.16663 19.1667 9.16663Z"
      fill="#101010"
    />
    <path
      d="M19.1667 3.33337H0.833333C0.373096 3.33337 0 3.70647 0 4.16671C0 4.62694 0.373096 5.00004 0.833333 5.00004H19.1667C19.6269 5.00004 20 4.62694 20 4.16671C20 3.70647 19.6269 3.33337 19.1667 3.33337Z"
      fill="#101010"
    />
    <path
      d="M19.1667 15H0.833333C0.373096 15 0 15.3731 0 15.8333C0 16.2936 0.373096 16.6667 0.833333 16.6667H19.1667C19.6269 16.6667 20 16.2936 20 15.8333C20 15.3731 19.6269 15 19.1667 15Z"
      fill="#101010"
    />
  </g>
  <defs>
    <clipPath id="clip0_111_1374">
      <rect width="20" height="20" fill="white" />
    </clipPath>
  </defs>
</svg>
