<svg xmlns="http://www.w3.org/2000/svg" viewBox="0 0 32 40" x="0px" y="0px">
    <g>
        <path 
            d="M28.49365,26.67188H3.50635A2.32046,2.32046,0,0,1,2.73,26.53857a2.35279,2.35279,0,0,1-1.5708-2.21386V7.67529a2.37288,2.37288,0,0,1,2.3472-2.34713l24.98727,0a2.37289,2.37289,0,0,1,2.34714,2.3472l0,16.64939A2.35717,2.35717,0,0,1,28.49365,26.67188Zm-23.86523-2H27.37158L20.0542,17.58252l-1.88379,1.89355h-.00049a3.12721,3.12721,0,0,1-4.33887.00147l-1.88525-1.895Zm16.83642-8.50733,7.376,7.146V8.74951ZM3.15918,8.74951v14.561l7.376-7.146ZM15.9668,18.37988a1.00513,1.00513,0,0,0,.78711-.3164L27.43359,7.32812H4.56641L15.24756,18.06494A1.05869,1.05869,0,0,0,15.9668,18.37988Z" fill="#657acd33" />
    </g>
    <text x="0" y="47" fill="#657acd33" font-size="5px" font-weight="bold" 
        font-family="'Helvetica Neue', Helvetica, Arial-Unicode, Arial, Sans-serif">Created by
        sugeng riyanto</text>
    <text x="0" y="52" fill="#657acd33" font-size="5px" font-weight="bold"
        font-family="'Helvetica Neue', Helvetica, Arial-Unicode, Arial, Sans-serif">from the Noun
        Project</text>
</svg>