<svg
  width="26"
  height="26"
  viewBox="0 0 26 26"
  fill="none"
  xmlns="http://www.w3.org/2000/svg"
>
  <g clipPath="url(#clip0_111_1387)">
    <path
      d="M21.6125 6.00167L17.8425 2.22083C16.4125 0.790833 14.5058 0 12.48 0H7.58333C4.59333 0 2.16667 2.42667 2.16667 5.41667V20.5833C2.16667 23.5733 4.59333 26 7.58333 26H9.75C10.3458 26 10.8333 25.5125 10.8333 24.9167C10.8333 24.3208 10.3458 23.8333 9.75 23.8333H7.58333C5.79583 23.8333 4.33333 22.3708 4.33333 20.5833V5.41667C4.33333 3.62917 5.79583 2.16667 7.58333 2.16667H12.4692C12.6425 2.16667 12.8267 2.16667 13 2.18833V7.58333C13 9.37083 14.4625 10.8333 16.25 10.8333H21.645C21.6667 11.0067 21.6667 11.18 21.6667 11.3642V20.5833C21.6667 21.7425 21.0383 22.815 20.0417 23.4C19.5217 23.7033 19.3483 24.3642 19.6517 24.8842C19.9442 25.4042 20.605 25.5775 21.1358 25.285C22.8042 24.3208 23.8442 22.5225 23.8442 20.5942V11.3642C23.8442 9.33833 23.0533 7.43167 21.6233 6.00167H21.6125ZM16.25 8.66667C15.6542 8.66667 15.1667 8.17917 15.1667 7.58333V2.88167C15.5783 3.12 15.9575 3.4125 16.3042 3.75917L20.0742 7.54C20.4208 7.88667 20.7133 8.26583 20.9517 8.6775H16.25V8.66667ZM15.1667 13C12.7725 13 10.8333 14.9392 10.8333 17.3333C10.8333 18.9367 11.7108 20.3342 13 21.0817V25.2092C13 25.9025 13.845 26.2492 14.3325 25.7617L15.1667 24.9275L16.0008 25.7617C16.4883 26.2492 17.3333 25.9025 17.3333 25.2092V21.0817C18.6225 20.3342 19.5 18.9258 19.5 17.3333C19.5 14.9392 17.5608 13 15.1667 13ZM15.1667 19.5C13.975 19.5 13 18.525 13 17.3333C13 16.1417 13.975 15.1667 15.1667 15.1667C16.3583 15.1667 17.3333 16.1417 17.3333 17.3333C17.3333 18.525 16.3583 19.5 15.1667 19.5Z"
      fill="#667ACD"
    />
  </g>
  <defs>
    <clipPath id="clip0_111_1387">
      <rect width="26" height="26" fill="white" />
    </clipPath>
  </defs>
</svg>