<svg xmlns="http://www.w3.org/2000/svg" xmlns:xlink="http://www.w3.org/1999/xlink" version="1.1" x="0px" y="0px" viewBox="0 0 90 112.5" enable-background="new 0 0 90 90" xml:space="preserve"><path fill-rule="evenodd" clip-rule="evenodd" d="M29.994,9.732c-6.293,0.109-11.615,2.203-14.537,5.5  c-0.213,0.24-0.334,0.553-0.334,0.875v5.188l-1.594,1.62c-0.801,0.823-1.031,1.276-1.031,2.375v32.667c0,2.125,1.428,3.4,2.943,3.4  h10.947c-0.988-3.578-0.941-7.359,0.125-10.911c-3.395,0.651-6.369,2.026-8.75,3.792V16.77c2.281-2.359,6.84-4.323,12.506-4.428  c5.672-0.099,10.104,1.344,13.428,4.469V33.54c-0.094,1.854,2.738,1.854,2.645,0V16.811c3.324-3.125,7.762-4.567,13.428-4.463  c5.666,0.099,10.223,2.063,12.504,4.422v37.469c-2.219-1.641-4.953-2.953-8.057-3.651c1.021,3.516,1.037,7.245,0.053,10.771h10.328  c1.52,0,2.947-1.275,2.947-3.4V25.29c0-1.099-0.229-1.552-1.037-2.375l-1.582-1.609v-5.198c-0.006-0.322-0.125-0.635-0.344-0.875  c-2.918-3.297-8.25-5.391-14.537-5.5c-6.285-0.114-11.172,1.484-15.025,4.881C41.166,11.217,36.279,9.618,29.994,9.732z"/><path fill-rule="evenodd" clip-rule="evenodd" d="M45.332,42.467c3.49,0,6.975,1.334,9.641,4c5.334,5.334,5.334,13.948,0,19.281  c-5.334,5.334-13.943,5.328-19.275-0.005c-5.334-5.333-5.334-13.938,0-19.271C38.363,43.806,41.848,42.473,45.332,42.467z   M45.332,39.842c-4.166,0-8.334,1.589-11.506,4.761c-6.344,6.344-6.344,16.667,0,23.011c5.355,5.354,13.537,6.177,19.777,2.494  l9.154,9.146c1.516,1.521,4.012,1.364,5.553-0.172c1.537-1.537,1.693-4.037,0.178-5.553l-9.156-9.15  c3.682-6.24,2.863-14.428-2.49-19.781C53.67,41.427,49.504,39.842,45.332,39.842z"/><path fill-rule="evenodd" clip-rule="evenodd" d="M37.707,61.842c-0.506,0.527-0.494,1.361,0.025,1.865  c2.016,2.016,4.756,3.15,7.605,3.15c2.848,0,5.582-1.13,7.598-3.146c0.521-0.516,0.521-1.354,0.006-1.875  c-0.521-0.516-1.359-0.516-1.875,0c-1.521,1.521-3.578,2.375-5.729,2.375c-2.152,0-4.215-0.854-5.734-2.375  C39.082,61.306,38.223,61.311,37.707,61.842z"/><path fill-rule="evenodd" clip-rule="evenodd" d="M30.916,27.895c-2.793,0.021-5.631,0.516-8.277,1.609  c-0.594,0.229-0.885,0.9-0.641,1.489c0.24,0.589,0.922,0.859,1.506,0.604c4.662-1.922,10.281-1.75,14.641-0.318  c0.6,0.198,1.24-0.125,1.432-0.719c0.199-0.599-0.125-1.239-0.719-1.432C36.432,28.326,33.701,27.873,30.916,27.895z"/><path fill-rule="evenodd" clip-rule="evenodd" d="M59.135,28.598c-2.787-0.021-5.521,0.432-7.943,1.229  c-0.594,0.198-0.922,0.839-0.725,1.434c0.199,0.593,0.84,0.921,1.434,0.723c4.359-1.438,9.973-1.609,14.639,0.318  c0.578,0.239,1.24-0.031,1.48-0.615c0.244-0.578-0.031-1.239-0.609-1.482C64.764,29.113,61.92,28.613,59.135,28.598z"/><path fill-rule="evenodd" clip-rule="evenodd" d="M59.135,21.191c-2.787-0.021-5.521,0.432-7.943,1.235  c-0.641,0.155-1.006,0.827-0.803,1.452c0.209,0.625,0.902,0.942,1.512,0.692c4.359-1.438,9.973-1.609,14.639,0.317  c0.578,0.24,1.24-0.031,1.48-0.614c0.244-0.578-0.031-1.238-0.609-1.484C64.764,21.703,61.92,21.212,59.135,21.191z"/><path fill-rule="evenodd" clip-rule="evenodd" d="M33.076,34.686c-3.453-0.271-7.104,0.136-10.438,1.511  c-0.594,0.23-0.885,0.901-0.641,1.489c0.24,0.589,0.922,0.865,1.506,0.609c2.938-1.213,6.25-1.599,9.396-1.349  c0.641,0.078,1.219-0.396,1.266-1.042C34.217,35.264,33.723,34.707,33.076,34.686z"/><path fill-rule="evenodd" clip-rule="evenodd" d="M30.916,21.191c-2.793,0.021-5.631,0.512-8.277,1.599  c-0.594,0.234-0.885,0.906-0.641,1.495c0.24,0.584,0.922,0.859,1.506,0.604c4.662-1.927,10.281-1.755,14.641-0.317  c0.609,0.25,1.307-0.067,1.51-0.692c0.209-0.625-0.16-1.297-0.797-1.452C36.432,21.623,33.701,21.17,30.916,21.191z"/><text x="0" y="105" fill="#000000" font-size="5px" font-weight="bold" font-family="'Helvetica Neue', Helvetica, Arial-Unicode, Arial, Sans-serif">Created by Cuputo</text><text x="0" y="110" fill="#000000" font-size="5px" font-weight="bold" font-family="'Helvetica Neue', Helvetica, Arial-Unicode, Arial, Sans-serif">from the Noun Project</text></svg>