<svg width="14" height="16" viewBox="0 0 14 16" fill="none" xmlns="http://www.w3.org/2000/svg">
<g clip-path="url(#clip0_341_174)">
<path d="M12.9751 6.07334H1.0249L5.9249 0.50789C6.06501 0.358579 6.23253 0.239994 6.41755 0.159156C6.60256 0.0783176 6.80131 0.0368692 7.00202 0.0372648C7.20272 0.0376603 7.40132 0.0798919 7.58603 0.161459C7.77075 0.243026 7.93784 0.362271 8.0774 0.512132L12.9751 6.07334Z" fill="#8E939C"/>
<path d="M6.99999 16.0067C6.79647 16.0065 6.59527 15.9618 6.40945 15.8756C6.22363 15.7893 6.05735 15.6634 5.9214 15.5061L1.0249 9.94608H12.9751L8.07507 15.5103C7.93942 15.6668 7.7736 15.7919 7.58837 15.8774C7.40315 15.9629 7.20267 16.007 6.99999 16.0067Z" fill="#8E939C"/>
</g>
<defs>
<clipPath id="clip0_341_174">
<rect width="14" height="16" fill="white"/>
</clipPath>
</defs>
</svg>
