<svg width="20" height="20" viewBox="0 0 20 20" fill="none" xmlns="http://www.w3.org/2000/svg">
<g clip-path="url(#clip0_1560_1226)">
<path d="M6.42251 7.71336C6.74834 8.0392 6.74834 8.5667 6.42251 8.8917C6.09668 9.21753 5.56918 9.21753 5.24418 8.8917C4.91834 8.56586 4.91834 8.03836 5.24418 7.71336C5.57001 7.38753 6.09751 7.38753 6.42251 7.71336ZM17.9658 12.7842L17.495 13.255C17.4725 14.2825 17.0742 15.3025 16.2992 16.0875L13.66 18.7609C12.8742 19.5567 11.8258 19.9967 10.7075 20H10.6933C9.58084 20 8.53501 19.5667 7.74834 18.78L1.56834 12.6525C1.02668 12.1117 0.76501 11.3675 0.848343 10.6084L1.48584 4.84503C1.52834 4.46503 1.82251 4.16253 2.20084 4.11086L7.94168 3.32586C8.71834 3.22253 9.50001 3.4867 10.0483 4.03503L16.2775 10.2117C16.6 10.5342 16.8583 10.8975 17.0533 11.285C17.73 10.3134 17.635 8.95586 16.7683 8.0892L10.4425 1.91836C10.2517 1.72753 9.98834 1.6392 9.73334 1.67503L3.99251 2.46003C3.53501 2.52169 3.11584 2.20253 3.05334 1.74753C2.99168 1.29169 3.31084 0.871695 3.76584 0.809195L9.50751 0.0233618C10.275 -0.0858048 11.065 0.182528 11.6142 0.733362L17.9383 6.90419C19.56 8.52503 19.5692 11.16 17.965 12.785L17.9658 12.7842ZM15.1008 11.3925L8.87168 5.21586C8.68584 5.03003 8.42501 4.9442 8.16584 4.9767L3.07001 5.6742L2.50418 10.7909C2.47668 11.0434 2.56334 11.2917 2.74334 11.4709L8.92334 17.5984C9.39751 18.0734 10.025 18.3325 10.6925 18.3325H10.7008C11.3725 18.3309 12.0017 18.0667 12.4725 17.5884L15.1117 14.915C16.0742 13.94 16.0692 12.3592 15.1 11.3909L15.1008 11.3925Z" fill="#646A73"/>
</g>
<defs>
<clipPath id="clip0_1560_1226">
<rect width="20" height="20" fill="white"/>
</clipPath>
</defs>
</svg>
